<svg width="166" height="41" viewBox="0 0 166 41" fill="none" xmlns="http://www.w3.org/2000/svg">
<path d="M14.9432 15.625C14.8371 14.6326 14.3902 13.8598 13.6023 13.3068C12.822 12.7538 11.8068 12.4773 10.5568 12.4773C9.67803 12.4773 8.92424 12.6098 8.29545 12.875C7.66667 13.1402 7.18561 13.5 6.85227 13.9545C6.51894 14.4091 6.34849 14.928 6.34091 15.5114C6.34091 15.9962 6.45076 16.4167 6.67045 16.7727C6.89773 17.1288 7.20455 17.4318 7.59091 17.6818C7.97727 17.9242 8.4053 18.1288 8.875 18.2955C9.3447 18.4621 9.81818 18.6023 10.2955 18.7159L12.4773 19.2614C13.3561 19.4659 14.2008 19.7424 15.0114 20.0909C15.8295 20.4394 16.5606 20.8788 17.2045 21.4091C17.8561 21.9394 18.3712 22.5795 18.75 23.3295C19.1288 24.0795 19.3182 24.9583 19.3182 25.9659C19.3182 27.3295 18.9697 28.5303 18.2727 29.5682C17.5758 30.5985 16.5682 31.4053 15.25 31.9886C13.9394 32.5644 12.3523 32.8523 10.4886 32.8523C8.67803 32.8523 7.10606 32.572 5.77273 32.0114C4.44697 31.4508 3.40909 30.6326 2.65909 29.5568C1.91667 28.4811 1.51515 27.1705 1.45455 25.625H5.60227C5.66288 26.4356 5.91288 27.1098 6.35227 27.6477C6.79167 28.1856 7.36364 28.5871 8.06818 28.8523C8.7803 29.1174 9.57576 29.25 10.4545 29.25C11.3712 29.25 12.1742 29.1136 12.8636 28.8409C13.5606 28.5606 14.1061 28.1742 14.5 27.6818C14.8939 27.1818 15.0947 26.5985 15.1023 25.9318C15.0947 25.3258 14.9167 24.8258 14.5682 24.4318C14.2197 24.0303 13.7311 23.697 13.1023 23.4318C12.4811 23.1591 11.7538 22.9167 10.9205 22.7045L8.27273 22.0227C6.35606 21.5303 4.84091 20.7841 3.72727 19.7841C2.62121 18.7765 2.06818 17.4394 2.06818 15.7727C2.06818 14.4015 2.43939 13.2008 3.18182 12.1705C3.93182 11.1402 4.95076 10.3409 6.23864 9.77273C7.52652 9.19697 8.98485 8.90909 10.6136 8.90909C12.2652 8.90909 13.7121 9.19697 14.9545 9.77273C16.2045 10.3409 17.1856 11.1326 17.8977 12.1477C18.6098 13.1553 18.9773 14.3144 19 15.625H14.9432ZM30.5885 32.8409C28.884 32.8409 27.4067 32.4659 26.1567 31.7159C24.9067 30.9659 23.937 29.9167 23.2476 28.5682C22.5658 27.2197 22.2249 25.6439 22.2249 23.8409C22.2249 22.0379 22.5658 20.4583 23.2476 19.1023C23.937 17.7462 24.9067 16.6932 26.1567 15.9432C27.4067 15.1932 28.884 14.8182 30.5885 14.8182C32.2931 14.8182 33.7703 15.1932 35.0203 15.9432C36.2703 16.6932 37.2363 17.7462 37.9181 19.1023C38.6075 20.4583 38.9522 22.0379 38.9522 23.8409C38.9522 25.6439 38.6075 27.2197 37.9181 28.5682C37.2363 29.9167 36.2703 30.9659 35.0203 31.7159C33.7703 32.4659 32.2931 32.8409 30.5885 32.8409ZM30.6112 29.5455C31.5355 29.5455 32.3082 29.2917 32.9294 28.7841C33.5506 28.2689 34.0128 27.5795 34.3158 26.7159C34.6264 25.8523 34.7817 24.8902 34.7817 23.8295C34.7817 22.7614 34.6264 21.7955 34.3158 20.9318C34.0128 20.0606 33.5506 19.3674 32.9294 18.8523C32.3082 18.3371 31.5355 18.0795 30.6112 18.0795C29.6643 18.0795 28.8764 18.3371 28.2476 18.8523C27.6264 19.3674 27.1605 20.0606 26.8499 20.9318C26.5469 21.7955 26.3953 22.7614 26.3953 23.8295C26.3953 24.8902 26.5469 25.8523 26.8499 26.7159C27.1605 27.5795 27.6264 28.2689 28.2476 28.7841C28.8764 29.2917 29.6643 29.5455 30.6112 29.5455ZM53.6486 25.1591V15.0455H57.7623V32.5H53.7736V29.3977H53.5918C53.1979 30.375 52.5502 31.1742 51.6486 31.7955C50.7547 32.4167 49.6524 32.7273 48.3418 32.7273C47.1979 32.7273 46.1865 32.4735 45.3077 31.9659C44.4365 31.4508 43.7547 30.7045 43.2623 29.7273C42.7698 28.7424 42.5236 27.553 42.5236 26.1591V15.0455H46.6373V25.5227C46.6373 26.6288 46.9403 27.5076 47.5464 28.1591C48.1524 28.8106 48.9479 29.1364 49.9327 29.1364C50.5388 29.1364 51.1259 28.9886 51.6941 28.6932C52.2623 28.3977 52.7282 27.9583 53.0918 27.375C53.463 26.7841 53.6486 26.0455 53.6486 25.1591ZM66.186 9.22727V32.5H62.0724V9.22727H66.186ZM83.3257 15.625C83.2196 14.6326 82.7727 13.8598 81.9848 13.3068C81.2045 12.7538 80.1893 12.4773 78.9393 12.4773C78.0605 12.4773 77.3067 12.6098 76.678 12.875C76.0492 13.1402 75.5681 13.5 75.2348 13.9545C74.9014 14.4091 74.731 14.928 74.7234 15.5114C74.7234 15.9962 74.8333 16.4167 75.053 16.7727C75.2802 17.1288 75.587 17.4318 75.9734 17.6818C76.3598 17.9242 76.7878 18.1288 77.2575 18.2955C77.7272 18.4621 78.2007 18.6023 78.678 18.7159L80.8598 19.2614C81.7386 19.4659 82.5833 19.7424 83.3939 20.0909C84.212 20.4394 84.9431 20.8788 85.587 21.4091C86.2386 21.9394 86.7537 22.5795 87.1325 23.3295C87.5113 24.0795 87.7007 24.9583 87.7007 25.9659C87.7007 27.3295 87.3522 28.5303 86.6552 29.5682C85.9583 30.5985 84.9507 31.4053 83.6325 31.9886C82.3219 32.5644 80.7348 32.8523 78.8711 32.8523C77.0605 32.8523 75.4886 32.572 74.1552 32.0114C72.8295 31.4508 71.7916 30.6326 71.0416 29.5568C70.2992 28.4811 69.8977 27.1705 69.837 25.625H73.9848C74.0454 26.4356 74.2954 27.1098 74.7348 27.6477C75.1742 28.1856 75.7461 28.5871 76.4507 28.8523C77.1628 29.1174 77.9583 29.25 78.837 29.25C79.7537 29.25 80.5567 29.1136 81.2461 28.8409C81.9431 28.5606 82.4886 28.1742 82.8825 27.6818C83.2764 27.1818 83.4772 26.5985 83.4848 25.9318C83.4772 25.3258 83.2992 24.8258 82.9507 24.4318C82.6022 24.0303 82.1136 23.697 81.4848 23.4318C80.8636 23.1591 80.1363 22.9167 79.303 22.7045L76.6552 22.0227C74.7386 21.5303 73.2234 20.7841 72.1098 19.7841C71.0037 18.7765 70.4507 17.4394 70.4507 15.7727C70.4507 14.4015 70.8219 13.2008 71.5643 12.1705C72.3143 11.1402 73.3333 10.3409 74.6211 9.77273C75.909 9.19697 77.3673 8.90909 78.9961 8.90909C80.6477 8.90909 82.0946 9.19697 83.337 9.77273C84.587 10.3409 85.5681 11.1326 86.2802 12.1477C86.9923 13.1553 87.3598 14.3144 87.3825 15.625H83.3257ZM91.3574 39.0455V15.0455H95.4028V17.9318H95.6415C95.8536 17.5076 96.1528 17.0568 96.5392 16.5795C96.9256 16.0947 97.4483 15.6818 98.1074 15.3409C98.7665 14.9924 99.6074 14.8182 100.63 14.8182C101.979 14.8182 103.195 15.1629 104.278 15.8523C105.369 16.5341 106.232 17.5455 106.869 18.8864C107.513 20.2197 107.835 21.8561 107.835 23.7955C107.835 25.7121 107.52 27.3409 106.891 28.6818C106.263 30.0227 105.407 31.0455 104.323 31.75C103.24 32.4545 102.013 32.8068 100.641 32.8068C99.6415 32.8068 98.8119 32.6402 98.1528 32.3068C97.4938 31.9735 96.9634 31.572 96.5619 31.1023C96.168 30.625 95.8612 30.1742 95.6415 29.75H95.471V39.0455H91.3574ZM95.3915 23.7727C95.3915 24.9015 95.5506 25.8902 95.8688 26.7386C96.1945 27.5871 96.6604 28.25 97.2665 28.7273C97.8801 29.197 98.6225 29.4318 99.4938 29.4318C100.403 29.4318 101.164 29.1894 101.778 28.7045C102.391 28.2121 102.854 27.5417 103.164 26.6932C103.482 25.8371 103.641 24.8636 103.641 23.7727C103.641 22.6894 103.486 21.7273 103.176 20.8864C102.865 20.0455 102.403 19.3864 101.789 18.9091C101.176 18.4318 100.41 18.1932 99.4938 18.1932C98.615 18.1932 97.8688 18.4242 97.2551 18.8864C96.6415 19.3485 96.1756 19.9962 95.8574 20.8295C95.5468 21.6629 95.3915 22.6439 95.3915 23.7727ZM116.46 32.8523C115.354 32.8523 114.358 32.6553 113.471 32.2614C112.593 31.8598 111.896 31.2689 111.381 30.4886C110.873 29.7083 110.619 28.7462 110.619 27.6023C110.619 26.6174 110.801 25.803 111.165 25.1591C111.528 24.5152 112.025 24 112.653 23.6136C113.282 23.2273 113.99 22.9356 114.778 22.7386C115.574 22.5341 116.396 22.3864 117.244 22.2955C118.267 22.1894 119.096 22.0947 119.733 22.0114C120.369 21.9205 120.831 21.7841 121.119 21.6023C121.415 21.4129 121.562 21.1212 121.562 20.7273V20.6591C121.562 19.803 121.309 19.1402 120.801 18.6705C120.293 18.2008 119.562 17.9659 118.608 17.9659C117.6 17.9659 116.801 18.1856 116.21 18.625C115.627 19.0644 115.233 19.5833 115.028 20.1818L111.187 19.6364C111.49 18.5758 111.99 17.6894 112.687 16.9773C113.384 16.2576 114.237 15.7197 115.244 15.3636C116.252 15 117.365 14.8182 118.585 14.8182C119.426 14.8182 120.263 14.9167 121.096 15.1136C121.93 15.3106 122.691 15.6364 123.381 16.0909C124.07 16.5379 124.623 17.1477 125.04 17.9205C125.464 18.6932 125.676 19.6591 125.676 20.8182V32.5H121.721V30.1023H121.585C121.335 30.5871 120.983 31.0417 120.528 31.4659C120.081 31.8826 119.517 32.2197 118.835 32.4773C118.161 32.7273 117.369 32.8523 116.46 32.8523ZM117.528 29.8295C118.354 29.8295 119.07 29.6667 119.676 29.3409C120.282 29.0076 120.748 28.5682 121.074 28.0227C121.407 27.4773 121.574 26.8826 121.574 26.2386V24.1818C121.445 24.2879 121.225 24.3864 120.915 24.4773C120.612 24.5682 120.271 24.6477 119.892 24.7159C119.513 24.7841 119.138 24.8447 118.767 24.8977C118.396 24.9508 118.074 24.9962 117.801 25.0341C117.187 25.1174 116.638 25.2538 116.153 25.4432C115.668 25.6326 115.286 25.8977 115.006 26.2386C114.725 26.572 114.585 27.0038 114.585 27.5341C114.585 28.2917 114.862 28.8636 115.415 29.25C115.968 29.6364 116.672 29.8295 117.528 29.8295ZM137.506 32.8409C135.764 32.8409 134.267 32.4583 133.017 31.6932C131.775 30.928 130.817 29.8712 130.142 28.5227C129.476 27.1667 129.142 25.6061 129.142 23.8409C129.142 22.0682 129.483 20.5038 130.165 19.1477C130.847 17.7841 131.809 16.7235 133.051 15.9659C134.301 15.2008 135.779 14.8182 137.483 14.8182C138.9 14.8182 140.154 15.0795 141.245 15.6023C142.343 16.1174 143.218 16.8485 143.87 17.7955C144.521 18.7348 144.892 19.8333 144.983 21.0909H141.051C140.892 20.25 140.514 19.5492 139.915 18.9886C139.324 18.4205 138.533 18.1364 137.54 18.1364C136.699 18.1364 135.961 18.3636 135.324 18.8182C134.688 19.2652 134.192 19.9091 133.836 20.75C133.487 21.5909 133.313 22.5985 133.313 23.7727C133.313 24.9621 133.487 25.9848 133.836 26.8409C134.184 27.6894 134.673 28.3447 135.301 28.8068C135.938 29.2614 136.684 29.4886 137.54 29.4886C138.146 29.4886 138.688 29.375 139.165 29.1477C139.65 28.9129 140.055 28.5758 140.381 28.1364C140.707 27.697 140.93 27.1629 141.051 26.5341H144.983C144.885 27.7689 144.521 28.8636 143.892 29.8182C143.264 30.7652 142.408 31.5076 141.324 32.0455C140.241 32.5758 138.968 32.8409 137.506 32.8409ZM156.168 32.8409C154.418 32.8409 152.907 32.4773 151.634 31.75C150.369 31.0152 149.396 29.9773 148.714 28.6364C148.032 27.2879 147.691 25.7008 147.691 23.875C147.691 22.0795 148.032 20.5038 148.714 19.1477C149.403 17.7841 150.365 16.7235 151.6 15.9659C152.835 15.2008 154.286 14.8182 155.952 14.8182C157.028 14.8182 158.043 14.9924 158.998 15.3409C159.96 15.6818 160.809 16.2121 161.543 16.9318C162.286 17.6515 162.869 18.5682 163.293 19.6818C163.718 20.7879 163.93 22.1061 163.93 23.6364V24.8977H149.623V22.125H159.987C159.979 21.3371 159.809 20.6364 159.475 20.0227C159.142 19.4015 158.676 18.9129 158.077 18.5568C157.487 18.2008 156.797 18.0227 156.009 18.0227C155.168 18.0227 154.43 18.2273 153.793 18.6364C153.157 19.0379 152.661 19.5682 152.305 20.2273C151.956 20.8788 151.778 21.5947 151.771 22.375V24.7955C151.771 25.8106 151.956 26.6818 152.327 27.4091C152.699 28.1288 153.218 28.6818 153.884 29.0682C154.551 29.447 155.331 29.6364 156.225 29.6364C156.824 29.6364 157.365 29.553 157.85 29.3864C158.335 29.2121 158.756 28.9583 159.112 28.625C159.468 28.2917 159.737 27.8788 159.918 27.3864L163.759 27.8182C163.517 28.8333 163.055 29.7197 162.373 30.4773C161.699 31.2273 160.835 31.8106 159.782 32.2273C158.729 32.6364 157.524 32.8409 156.168 32.8409Z" fill="black"/>
</svg>
