<svg width="44" height="44" viewBox="0 0 44 44" fill="none" xmlns="http://www.w3.org/2000/svg">
<rect width="44" height="44" rx="8" fill="#EFF9FF"/>
<path d="M31.5999 13.6C31.5999 13.2405 31.4387 12.9 31.1607 12.672C30.8827 12.4441 30.5171 12.3528 30.1646 12.4233L18.1646 14.8233C17.6037 14.9355 17.1999 15.428 17.1999 16V26.9366C16.8246 26.8481 16.4207 26.8 15.9999 26.8C14.0117 26.8 12.3999 27.8745 12.3999 29.2C12.3999 30.5255 14.0117 31.6 15.9999 31.6C17.9881 31.6 19.5999 30.5255 19.5999 29.2V19.3838L29.1999 17.4638V24.5366C28.8246 24.4481 28.4207 24.4 27.9999 24.4C26.0117 24.4 24.3999 25.4745 24.3999 26.8C24.3999 28.1255 26.0117 29.2 27.9999 29.2C29.9881 29.2 31.5999 28.1255 31.5999 26.8V13.6Z" fill="#00A4F4"/>
</svg>
