<svg width="17" height="17" viewBox="0 0 17 17" fill="none" xmlns="http://www.w3.org/2000/svg">
<path d="M14.75 5.125V4C14.75 3.60218 14.592 3.22064 14.3107 2.93934C14.0294 2.65804 13.6478 2.5 13.25 2.5H2.75C2.35218 2.5 1.97064 2.65804 1.68934 2.93934C1.40804 3.22064 1.25 3.60218 1.25 4V14.5C1.25 14.8978 1.40804 15.2794 1.68934 15.5607C1.97064 15.842 2.35218 16 2.75 16H5.375M11 1V4M5 1V4M1.25 7H5M12.125 12.625L11 11.725V10M15.5 11.5C15.5 13.9853 13.4853 16 11 16C8.51472 16 6.5 13.9853 6.5 11.5C6.5 9.01472 8.51472 7 11 7C13.4853 7 15.5 9.01472 15.5 11.5Z" stroke="#5D5D5D" stroke-width="1.5" stroke-linecap="round" stroke-linejoin="round"/>
</svg>
