<svg width="44" height="44" viewBox="0 0 44 44" fill="none" xmlns="http://www.w3.org/2000/svg">
<rect width="44" height="44" rx="8" fill="#EFF9FF"/>
<path fill-rule="evenodd" clip-rule="evenodd" d="M14.8 15.3C14.8 13.9745 15.8746 12.9 17.2 12.9H22.703C23.3395 12.9 23.95 13.1529 24.4 13.603L28.4971 17.7C28.9472 18.1501 29.2 18.7606 29.2 19.3971V29.7C29.2 31.0255 28.1255 32.1 26.8 32.1H17.2C15.8746 32.1 14.8 31.0255 14.8 29.7V15.3ZM17.2 22.5C17.2 21.8373 17.7373 21.3 18.4 21.3H25.6C26.2628 21.3 26.8 21.8373 26.8 22.5C26.8 23.1628 26.2628 23.7 25.6 23.7H18.4C17.7373 23.7 17.2 23.1628 17.2 22.5ZM18.4 26.1C17.7373 26.1 17.2 26.6373 17.2 27.3C17.2 27.9628 17.7373 28.5 18.4 28.5H25.6C26.2628 28.5 26.8 27.9628 26.8 27.3C26.8 26.6373 26.2628 26.1 25.6 26.1H18.4Z" fill="#00A4F4"/>
</svg>
